<svg width="143" height="49" viewBox="0 0 143 49" fill="none" xmlns="http://www.w3.org/2000/svg">
<path d="M0.225122 37V1.48H7.32912V16.264H20.7211V1.48H27.8731V37H20.7211V22.648H7.32912V37H0.225122ZM38.6311 37.288C36.6791 37.288 35.0951 36.712 33.8791 35.56C32.6631 34.408 32.0551 32.808 32.0551 30.76V28.456C32.0551 26.504 32.7431 24.904 34.1191 23.656C35.4951 22.376 37.6391 21.736 40.5511 21.736H47.1271V19.96C47.1271 19.16 46.9831 18.504 46.6951 17.992C46.4071 17.448 45.8631 17.064 45.0631 16.84C44.2951 16.584 43.1111 16.456 41.5111 16.456H33.7831V12.328C35.0311 11.944 36.4711 11.608 38.1031 11.32C39.7671 11.032 41.7671 10.888 44.1031 10.888C46.2471 10.888 48.0711 11.144 49.5751 11.656C51.1111 12.168 52.2631 13.048 53.0311 14.296C53.8311 15.544 54.2311 17.272 54.2311 19.48V37H48.6151L47.4631 34.264C47.2391 34.52 46.8551 34.808 46.3111 35.128C45.7671 35.448 45.0951 35.784 44.2951 36.136C43.5271 36.456 42.6471 36.728 41.6551 36.952C40.6951 37.176 39.6871 37.288 38.6311 37.288ZM42.2311 32.344C42.5511 32.344 42.9031 32.312 43.2871 32.248C43.7031 32.152 44.1191 32.056 44.5351 31.96C44.9831 31.832 45.3831 31.72 45.7351 31.624C46.1191 31.496 46.4231 31.384 46.6471 31.288C46.9031 31.192 47.0631 31.128 47.1271 31.096V25.096L42.8071 25.384C41.5591 25.48 40.6311 25.8 40.0231 26.344C39.4471 26.888 39.1591 27.624 39.1591 28.552V29.608C39.1591 30.248 39.2871 30.776 39.5431 31.192C39.8311 31.608 40.1991 31.912 40.6471 32.104C41.1271 32.264 41.6551 32.344 42.2311 32.344ZM68.4297 37.288C67.6297 37.288 66.7657 37.256 65.8377 37.192C64.9097 37.16 63.9817 37.096 63.0537 37C62.1257 36.904 61.2617 36.792 60.4617 36.664C59.6617 36.504 58.9897 36.328 58.4457 36.136V31.96H69.8697C70.5417 31.96 71.0857 31.912 71.5017 31.816C71.9497 31.688 72.2697 31.48 72.4617 31.192C72.6857 30.872 72.7977 30.424 72.7977 29.848V29.032C72.7977 28.392 72.5897 27.896 72.1737 27.544C71.7577 27.192 70.9897 27.016 69.8697 27.016H65.8377C64.3657 27.016 63.0377 26.792 61.8537 26.344C60.6697 25.896 59.7257 25.16 59.0217 24.136C58.3497 23.112 58.0137 21.736 58.0137 20.008V18.52C58.0137 16.888 58.3337 15.512 58.9737 14.392C59.6137 13.272 60.6857 12.424 62.1897 11.848C63.6937 11.272 65.7577 10.984 68.3817 10.984C69.4377 10.984 70.5577 11.048 71.7417 11.176C72.9577 11.272 74.0937 11.416 75.1497 11.608C76.2377 11.768 77.1017 11.96 77.7417 12.184V16.36H66.9417C66.0137 16.36 65.3097 16.52 64.8297 16.84C64.3497 17.128 64.1097 17.688 64.1097 18.52V19.288C64.1097 19.864 64.2217 20.296 64.4457 20.584C64.6697 20.84 65.0057 21.032 65.4537 21.16C65.9337 21.256 66.5257 21.304 67.2297 21.304H71.3577C73.9817 21.304 75.8857 21.912 77.0697 23.128C78.2857 24.312 78.8937 25.96 78.8937 28.072V30.376C78.8937 32.104 78.4777 33.48 77.6457 34.504C76.8457 35.496 75.6617 36.216 74.0937 36.664C72.5577 37.08 70.6697 37.288 68.4297 37.288ZM97.4161 37.288C96.2961 37.288 95.2881 37.16 94.3921 36.904C93.4961 36.648 92.6801 36.312 91.9441 35.896C91.2401 35.48 90.5681 35.032 89.9281 34.552L88.7761 37H82.8241V0.375999H89.9281V13C90.9521 12.456 92.1041 11.96 93.3841 11.512C94.6641 11.064 95.8961 10.84 97.0801 10.84C99.2881 10.84 101.048 11.304 102.36 12.232C103.704 13.16 104.68 14.616 105.288 16.6C105.896 18.552 106.2 21.144 106.2 24.376C106.2 27.256 105.88 29.656 105.24 31.576C104.632 33.496 103.672 34.936 102.36 35.896C101.08 36.824 99.4321 37.288 97.4161 37.288ZM94.7761 31.48C95.6081 31.48 96.3441 31.272 96.9841 30.856C97.6561 30.408 98.1681 29.64 98.5201 28.552C98.9041 27.464 99.0961 25.96 99.0961 24.04C99.0961 21.8 98.8881 20.168 98.4721 19.144C98.0881 18.088 97.5601 17.4 96.8881 17.08C96.2481 16.728 95.5441 16.552 94.7761 16.552C93.8161 16.552 92.9201 16.712 92.0881 17.032C91.2881 17.32 90.5681 17.64 89.9281 17.992V30.232C90.5361 30.552 91.2241 30.84 91.9921 31.096C92.7921 31.352 93.7201 31.48 94.7761 31.48ZM117.549 48.376L120.333 37C118.893 37 117.629 36.728 116.541 36.184C115.453 35.64 114.541 34.872 113.805 33.88C113.101 32.856 112.557 31.592 112.173 30.088L107.325 11.224H114.717L118.797 28.648C118.957 29.256 119.165 29.736 119.421 30.088C119.677 30.44 119.949 30.696 120.237 30.856C120.525 30.984 120.781 31.08 121.005 31.144C121.261 31.176 121.453 31.192 121.581 31.192L126.237 11.224H133.437L125.757 43.624L123.453 48.376H117.549Z" fill="white"/>
<path d="M137.149 37.048C136.509 37.048 136.189 36.728 136.189 36.088V31.192C136.189 30.52 136.509 30.184 137.149 30.184H141.277C141.981 30.184 142.333 30.52 142.333 31.192V36.088C142.333 36.472 142.221 36.728 141.997 36.856C141.805 36.984 141.565 37.048 141.277 37.048H137.149Z" fill="#FF4C60"/>
</svg>
